<mxfile host="app.diagrams.net" modified="2023-04-20T20:08:04.431Z" agent="Mozilla/5.0 (Macintosh; Intel Mac OS X 10_15_7) AppleWebKit/605.1.15 (KHTML, like Gecko) Version/16.3 Safari/605.1.15" etag="DBNnoYuEKHWp_pJv4A7k" version="21.2.1" type="github">
  <diagram id="6a731a19-8d31-9384-78a2-239565b7b9f0" name="Page-1">
    <mxGraphModel dx="-238" dy="2277" grid="1" gridSize="10" guides="1" tooltips="1" connect="1" arrows="1" fold="1" page="1" pageScale="1" pageWidth="827" pageHeight="1169" background="none" math="0" shadow="0">
      <root>
        <mxCell id="0" />
        <mxCell id="1" parent="0" />
        <mxCell id="lSdv-a1NBsbb_buQkSgG-2353" value="" style="rounded=1;whiteSpace=wrap;html=1;strokeColor=#6c8ebf;fillColor=#dae8fc;fontSize=24;align=center;opacity=60;gradientColor=#7ea6e0;" parent="1" vertex="1">
          <mxGeometry x="3490" y="560" width="1130" height="760.5" as="geometry" />
        </mxCell>
        <mxCell id="lSdv-a1NBsbb_buQkSgG-2411" value="" style="rounded=1;whiteSpace=wrap;html=1;strokeColor=#A50040;fillColor=#d80073;fontSize=24;align=center;opacity=60;fontColor=#ffffff;" parent="1" vertex="1">
          <mxGeometry x="3530" y="815" width="297" height="209" as="geometry" />
        </mxCell>
        <mxCell id="lSdv-a1NBsbb_buQkSgG-2400" value="" style="rounded=1;whiteSpace=wrap;html=1;strokeColor=#d6b656;fillColor=#0000FF;fontSize=24;align=center;opacity=60;" parent="1" vertex="1">
          <mxGeometry x="3530" y="595" width="317" height="209" as="geometry" />
        </mxCell>
        <mxCell id="lSdv-a1NBsbb_buQkSgG-2394" value="" style="rounded=1;whiteSpace=wrap;html=1;strokeColor=#d6b656;fillColor=#fff2cc;fontSize=24;align=center;opacity=60;" parent="1" vertex="1">
          <mxGeometry x="3930" y="583.5" width="640" height="336.5" as="geometry" />
        </mxCell>
        <mxCell id="GC0GD7nrSptXFap7n9_A-2270" value="" style="rounded=1;whiteSpace=wrap;html=1;strokeColor=none;fillColor=#BAC8D3;fontSize=24;fontColor=#23445D;align=center;opacity=60;" parent="1" vertex="1">
          <mxGeometry x="2360" y="110.5" width="363.5" height="175" as="geometry" />
        </mxCell>
        <mxCell id="GC0GD7nrSptXFap7n9_A-2257" value="" style="shape=mxgraph.cisco.routers.router;sketch=0;html=1;pointerEvents=1;dashed=0;fillColor=#036897;strokeColor=#ffffff;strokeWidth=2;verticalLabelPosition=bottom;verticalAlign=top;align=center;outlineConnect=0;" parent="1" vertex="1">
          <mxGeometry x="2060" y="287" width="78" height="53" as="geometry" />
        </mxCell>
        <mxCell id="GC0GD7nrSptXFap7n9_A-2258" value="" style="rounded=1;whiteSpace=wrap;html=1;strokeColor=none;fillColor=#BAC8D3;fontSize=24;fontColor=#23445D;align=center;opacity=60;" parent="1" vertex="1">
          <mxGeometry x="1796.5" y="66.5" width="220" height="175" as="geometry" />
        </mxCell>
        <mxCell id="GC0GD7nrSptXFap7n9_A-2259" value="" style="shadow=0;dashed=0;html=1;strokeColor=none;fillColor=#4495D1;labelPosition=center;verticalLabelPosition=bottom;verticalAlign=top;align=center;outlineConnect=0;shape=mxgraph.veeam.proxy_server;" parent="1" vertex="1">
          <mxGeometry x="1870" y="122" width="76" height="72" as="geometry" />
        </mxCell>
        <mxCell id="2228" value="&lt;font color=&quot;#23445d&quot;&gt;WAN&lt;/font&gt;" style="rounded=1;whiteSpace=wrap;html=1;strokeColor=none;fillColor=none;fontSize=14;fontColor=#742B21;align=center;fontStyle=1" parent="1" vertex="1">
          <mxGeometry x="1870" y="75" width="73" height="19" as="geometry" />
        </mxCell>
        <mxCell id="GC0GD7nrSptXFap7n9_A-2261" style="edgeStyle=none;rounded=1;html=1;strokeColor=#23445D;endArrow=none;endFill=0;strokeWidth=4;entryX=0.5;entryY=0;entryDx=0;entryDy=0;entryPerimeter=0;" parent="1" source="GC0GD7nrSptXFap7n9_A-2259" target="GC0GD7nrSptXFap7n9_A-2257" edge="1">
          <mxGeometry relative="1" as="geometry">
            <mxPoint x="1806" y="280" as="sourcePoint" />
            <mxPoint x="1946" y="347" as="targetPoint" />
          </mxGeometry>
        </mxCell>
        <mxCell id="GC0GD7nrSptXFap7n9_A-2267" value="" style="shape=mxgraph.cisco.security.firewall;sketch=0;html=1;pointerEvents=1;dashed=0;fillColor=#036897;strokeColor=#ffffff;strokeWidth=2;verticalLabelPosition=bottom;verticalAlign=top;align=center;outlineConnect=0;" parent="1" vertex="1">
          <mxGeometry x="2010" y="205" width="29" height="67" as="geometry" />
        </mxCell>
        <mxCell id="GC0GD7nrSptXFap7n9_A-2268" value="" style="shape=mxgraph.cisco.routers.wireless_router;sketch=0;html=1;pointerEvents=1;dashed=0;fillColor=#036897;strokeColor=#ffffff;strokeWidth=2;verticalLabelPosition=bottom;verticalAlign=top;align=center;outlineConnect=0;" parent="1" vertex="1">
          <mxGeometry x="2547.75" y="156.5" width="78" height="77" as="geometry" />
        </mxCell>
        <mxCell id="GC0GD7nrSptXFap7n9_A-2271" value="&lt;font color=&quot;#23445d&quot;&gt;Wireless&lt;/font&gt;" style="rounded=1;whiteSpace=wrap;html=1;strokeColor=none;fillColor=none;fontSize=14;fontColor=#742B21;align=center;fontStyle=1" parent="1" vertex="1">
          <mxGeometry x="2550.25" y="111.5" width="73" height="19" as="geometry" />
        </mxCell>
        <mxCell id="GC0GD7nrSptXFap7n9_A-2272" value="&lt;font color=&quot;#23445d&quot;&gt;VLAN 30&lt;/font&gt;" style="rounded=1;whiteSpace=wrap;html=1;strokeColor=none;fillColor=none;fontSize=14;fontColor=#742B21;align=center;fontStyle=1" parent="1" vertex="1">
          <mxGeometry x="2457.75" y="111.5" width="73" height="19" as="geometry" />
        </mxCell>
        <mxCell id="E8cnr3b_6ZYwIvbNZkuO-2257" value="" style="rounded=1;whiteSpace=wrap;html=1;strokeColor=none;fillColor=#BAC8D3;fontSize=24;fontColor=#23445D;align=center;opacity=60;" parent="1" vertex="1">
          <mxGeometry x="2360" y="-88" width="363.5" height="175" as="geometry" />
        </mxCell>
        <mxCell id="E8cnr3b_6ZYwIvbNZkuO-2258" value="&lt;font color=&quot;#23445d&quot;&gt;DNS Server&lt;br&gt;&lt;/font&gt;" style="rounded=1;whiteSpace=wrap;html=1;strokeColor=none;fillColor=none;fontSize=14;fontColor=#742B21;align=center;fontStyle=1" parent="1" vertex="1">
          <mxGeometry x="2550.25" y="-78" width="73" height="19" as="geometry" />
        </mxCell>
        <mxCell id="E8cnr3b_6ZYwIvbNZkuO-2259" value="&lt;font color=&quot;#23445d&quot;&gt;VLAN 5&lt;/font&gt;" style="rounded=1;whiteSpace=wrap;html=1;strokeColor=none;fillColor=none;fontSize=14;fontColor=#742B21;align=center;fontStyle=1" parent="1" vertex="1">
          <mxGeometry x="2460" y="-78" width="73" height="19" as="geometry" />
        </mxCell>
        <mxCell id="E8cnr3b_6ZYwIvbNZkuO-2260" value="" style="shape=mxgraph.cisco.servers.fileserver;html=1;dashed=0;fillColor=#10739E;strokeColor=#ffffff;strokeWidth=2;verticalLabelPosition=bottom;verticalAlign=top;fontFamily=Helvetica;fontSize=36;fontColor=#FFB366" parent="1" vertex="1">
          <mxGeometry x="2565.25" y="-16" width="43" height="62" as="geometry" />
        </mxCell>
        <mxCell id="E8cnr3b_6ZYwIvbNZkuO-2261" style="edgeStyle=none;rounded=1;html=1;strokeColor=#23445D;endArrow=none;endFill=0;strokeWidth=4;exitX=1;exitY=0.5;exitDx=0;exitDy=0;exitPerimeter=0;entryX=0;entryY=0.5;entryDx=0;entryDy=0;entryPerimeter=0;" parent="1" source="GC0GD7nrSptXFap7n9_A-2257" target="lSdv-a1NBsbb_buQkSgG-2436" edge="1">
          <mxGeometry relative="1" as="geometry">
            <mxPoint x="2138" y="230" as="sourcePoint" />
            <mxPoint x="2275.25" y="313.5" as="targetPoint" />
          </mxGeometry>
        </mxCell>
        <mxCell id="lSdv-a1NBsbb_buQkSgG-2259" style="edgeStyle=none;rounded=1;html=1;strokeColor=#23445D;endArrow=none;endFill=0;strokeWidth=4;entryX=0.5;entryY=0;entryDx=0;entryDy=0;entryPerimeter=0;" parent="1" target="lSdv-a1NBsbb_buQkSgG-2436" edge="1">
          <mxGeometry relative="1" as="geometry">
            <mxPoint x="2302" y="10" as="sourcePoint" />
            <mxPoint x="2302.25" y="285.5" as="targetPoint" />
          </mxGeometry>
        </mxCell>
        <mxCell id="lSdv-a1NBsbb_buQkSgG-2260" style="edgeStyle=none;rounded=1;html=1;strokeColor=#23445D;endArrow=none;endFill=0;strokeWidth=4;" parent="1" target="GC0GD7nrSptXFap7n9_A-2268" edge="1">
          <mxGeometry relative="1" as="geometry">
            <mxPoint x="2300" y="195" as="sourcePoint" />
            <mxPoint x="2437" y="211.5" as="targetPoint" />
          </mxGeometry>
        </mxCell>
        <mxCell id="lSdv-a1NBsbb_buQkSgG-2261" style="edgeStyle=none;rounded=1;html=1;strokeColor=#23445D;endArrow=none;endFill=0;strokeWidth=4;entryX=0;entryY=0.5;entryDx=0;entryDy=0;entryPerimeter=0;" parent="1" target="E8cnr3b_6ZYwIvbNZkuO-2260" edge="1">
          <mxGeometry relative="1" as="geometry">
            <mxPoint x="2302.25" y="14.5" as="sourcePoint" />
            <mxPoint x="2550.25" y="14.5" as="targetPoint" />
          </mxGeometry>
        </mxCell>
        <mxCell id="lSdv-a1NBsbb_buQkSgG-2264" value="" style="rounded=1;whiteSpace=wrap;html=1;strokeColor=none;fillColor=#BAC8D3;fontSize=24;fontColor=#23445D;align=center;opacity=60;" parent="1" vertex="1">
          <mxGeometry x="2170" y="685" width="260" height="475" as="geometry" />
        </mxCell>
        <mxCell id="lSdv-a1NBsbb_buQkSgG-2265" value="&lt;font color=&quot;#23445d&quot;&gt;VLAN 10&lt;/font&gt;" style="rounded=1;whiteSpace=wrap;html=1;strokeColor=none;fillColor=none;fontSize=14;fontColor=#742B21;align=center;fontStyle=1" parent="1" vertex="1">
          <mxGeometry x="2329.25" y="710.5" width="73" height="19" as="geometry" />
        </mxCell>
        <mxCell id="lSdv-a1NBsbb_buQkSgG-2267" value="&lt;font color=&quot;#23445d&quot;&gt;Local home&lt;/font&gt;" style="rounded=1;whiteSpace=wrap;html=1;strokeColor=none;fillColor=none;fontSize=14;fontColor=#742B21;align=center;fontStyle=1" parent="1" vertex="1">
          <mxGeometry x="2270" y="691.5" width="164.25" height="19" as="geometry" />
        </mxCell>
        <mxCell id="GC0GD7nrSptXFap7n9_A-2265" value="" style="shape=mxgraph.cisco.computers_and_peripherals.pc;sketch=0;html=1;pointerEvents=1;dashed=0;fillColor=#036897;strokeColor=#ffffff;strokeWidth=2;verticalLabelPosition=bottom;verticalAlign=top;align=center;outlineConnect=0;" parent="1" vertex="1">
          <mxGeometry x="2245" y="726" width="60" height="52" as="geometry" />
        </mxCell>
        <mxCell id="lSdv-a1NBsbb_buQkSgG-2268" value="" style="shape=mxgraph.cisco.computers_and_peripherals.pc;sketch=0;html=1;pointerEvents=1;dashed=0;fillColor=#036897;strokeColor=#ffffff;strokeWidth=2;verticalLabelPosition=bottom;verticalAlign=top;align=center;outlineConnect=0;" parent="1" vertex="1">
          <mxGeometry x="2245" y="1083" width="60" height="52" as="geometry" />
        </mxCell>
        <mxCell id="lSdv-a1NBsbb_buQkSgG-2269" value="" style="shape=mxgraph.cisco.computers_and_peripherals.pc;sketch=0;html=1;pointerEvents=1;dashed=0;fillColor=#036897;strokeColor=#ffffff;strokeWidth=2;verticalLabelPosition=bottom;verticalAlign=top;align=center;outlineConnect=0;" parent="1" vertex="1">
          <mxGeometry x="2245" y="898" width="60" height="52" as="geometry" />
        </mxCell>
        <mxCell id="lSdv-a1NBsbb_buQkSgG-2270" value="" style="shape=mxgraph.cisco.computers_and_peripherals.pc;sketch=0;html=1;pointerEvents=1;dashed=0;fillColor=#036897;strokeColor=#ffffff;strokeWidth=2;verticalLabelPosition=bottom;verticalAlign=top;align=center;outlineConnect=0;" parent="1" vertex="1">
          <mxGeometry x="2245" y="989" width="60" height="52" as="geometry" />
        </mxCell>
        <mxCell id="lSdv-a1NBsbb_buQkSgG-2271" value="" style="shape=mxgraph.cisco.computers_and_peripherals.pc;sketch=0;html=1;pointerEvents=1;dashed=0;fillColor=#036897;strokeColor=#ffffff;strokeWidth=2;verticalLabelPosition=bottom;verticalAlign=top;align=center;outlineConnect=0;" parent="1" vertex="1">
          <mxGeometry x="2245" y="814" width="60" height="52" as="geometry" />
        </mxCell>
        <mxCell id="lSdv-a1NBsbb_buQkSgG-2276" style="edgeStyle=none;rounded=1;html=1;strokeColor=#23445D;endArrow=none;endFill=0;strokeWidth=4;" parent="1" edge="1">
          <mxGeometry relative="1" as="geometry">
            <mxPoint x="2210.25" y="730" as="sourcePoint" />
            <mxPoint x="2210" y="1103" as="targetPoint" />
          </mxGeometry>
        </mxCell>
        <mxCell id="lSdv-a1NBsbb_buQkSgG-2277" style="edgeStyle=none;rounded=1;html=1;strokeColor=#23445D;endArrow=none;endFill=0;strokeWidth=4;entryX=0.16;entryY=0.5;entryDx=0;entryDy=0;entryPerimeter=0;" parent="1" target="GC0GD7nrSptXFap7n9_A-2265" edge="1">
          <mxGeometry relative="1" as="geometry">
            <mxPoint x="2210" y="752" as="sourcePoint" />
            <mxPoint x="2137" y="740" as="targetPoint" />
          </mxGeometry>
        </mxCell>
        <mxCell id="lSdv-a1NBsbb_buQkSgG-2278" style="edgeStyle=orthogonalEdgeStyle;rounded=1;html=1;strokeColor=#23445D;endArrow=none;endFill=0;strokeWidth=4;entryX=0.16;entryY=0.5;entryDx=0;entryDy=0;entryPerimeter=0;" parent="1" target="lSdv-a1NBsbb_buQkSgG-2271" edge="1">
          <mxGeometry relative="1" as="geometry">
            <Array as="points">
              <mxPoint x="2210" y="780" />
              <mxPoint x="2210" y="840" />
            </Array>
            <mxPoint x="2210" y="780" as="sourcePoint" />
            <mxPoint x="2240" y="837" as="targetPoint" />
          </mxGeometry>
        </mxCell>
        <mxCell id="lSdv-a1NBsbb_buQkSgG-2279" style="edgeStyle=orthogonalEdgeStyle;rounded=1;html=1;strokeColor=#23445D;endArrow=none;endFill=0;strokeWidth=4;entryX=0.16;entryY=0.5;entryDx=0;entryDy=0;entryPerimeter=0;" parent="1" target="lSdv-a1NBsbb_buQkSgG-2269" edge="1">
          <mxGeometry relative="1" as="geometry">
            <Array as="points">
              <mxPoint x="2210" y="924" />
            </Array>
            <mxPoint x="2210" y="860" as="sourcePoint" />
            <mxPoint x="2255" y="920" as="targetPoint" />
          </mxGeometry>
        </mxCell>
        <mxCell id="lSdv-a1NBsbb_buQkSgG-2280" style="edgeStyle=orthogonalEdgeStyle;rounded=1;html=1;strokeColor=#23445D;endArrow=none;endFill=0;strokeWidth=4;entryX=0.16;entryY=0.5;entryDx=0;entryDy=0;entryPerimeter=0;" parent="1" target="lSdv-a1NBsbb_buQkSgG-2270" edge="1">
          <mxGeometry relative="1" as="geometry">
            <Array as="points">
              <mxPoint x="2210" y="1015" />
            </Array>
            <mxPoint x="2210" y="948" as="sourcePoint" />
            <mxPoint x="2255" y="1012" as="targetPoint" />
          </mxGeometry>
        </mxCell>
        <mxCell id="lSdv-a1NBsbb_buQkSgG-2281" style="edgeStyle=orthogonalEdgeStyle;rounded=1;html=1;strokeColor=#23445D;endArrow=none;endFill=0;strokeWidth=4;entryX=0.16;entryY=0.5;entryDx=0;entryDy=0;entryPerimeter=0;" parent="1" target="lSdv-a1NBsbb_buQkSgG-2268" edge="1">
          <mxGeometry relative="1" as="geometry">
            <Array as="points">
              <mxPoint x="2210" y="1110" />
              <mxPoint x="2255" y="1110" />
            </Array>
            <mxPoint x="2210" y="1046" as="sourcePoint" />
            <mxPoint x="2255" y="1113" as="targetPoint" />
          </mxGeometry>
        </mxCell>
        <mxCell id="lSdv-a1NBsbb_buQkSgG-2283" value="" style="rounded=1;whiteSpace=wrap;html=1;strokeColor=none;fillColor=#BAC8D3;fontSize=24;fontColor=#23445D;align=center;opacity=60;" parent="1" vertex="1">
          <mxGeometry x="2541" y="635" width="869.5" height="690" as="geometry" />
        </mxCell>
        <mxCell id="lSdv-a1NBsbb_buQkSgG-2284" value="&lt;font color=&quot;#23445d&quot;&gt;VLAN 20&lt;/font&gt;" style="rounded=1;whiteSpace=wrap;html=1;strokeColor=none;fillColor=none;fontSize=14;fontColor=#742B21;align=center;fontStyle=1" parent="1" vertex="1">
          <mxGeometry x="2780" y="700" width="74.75" height="23" as="geometry" />
        </mxCell>
        <mxCell id="lSdv-a1NBsbb_buQkSgG-2285" value="&lt;font color=&quot;#23445d&quot;&gt;Server&lt;/font&gt;" style="rounded=1;whiteSpace=wrap;html=1;strokeColor=none;fillColor=none;fontSize=14;fontColor=#742B21;align=center;fontStyle=1" parent="1" vertex="1">
          <mxGeometry x="2730.75" y="685" width="164.25" height="19" as="geometry" />
        </mxCell>
        <mxCell id="lSdv-a1NBsbb_buQkSgG-2297" value="" style="shape=mxgraph.cisco.switches.workgroup_switch;html=1;dashed=0;fillColor=#10739E;strokeColor=#ffffff;strokeWidth=2;verticalLabelPosition=bottom;verticalAlign=top;fontFamily=Helvetica;fontSize=36;fontColor=#FFB366" parent="1" vertex="1">
          <mxGeometry x="2160" y="543" width="101" height="50" as="geometry" />
        </mxCell>
        <mxCell id="lSdv-a1NBsbb_buQkSgG-2298" style="edgeStyle=none;rounded=1;html=1;strokeColor=#23445D;endArrow=none;endFill=0;strokeWidth=4;exitX=0.5;exitY=0.98;exitDx=0;exitDy=0;exitPerimeter=0;" parent="1" source="lSdv-a1NBsbb_buQkSgG-2436" edge="1">
          <mxGeometry relative="1" as="geometry">
            <mxPoint x="2302.25" y="341.5" as="sourcePoint" />
            <mxPoint x="2300" y="400" as="targetPoint" />
          </mxGeometry>
        </mxCell>
        <mxCell id="lSdv-a1NBsbb_buQkSgG-2299" style="edgeStyle=none;rounded=1;html=1;strokeColor=#23445D;endArrow=none;endFill=0;strokeWidth=4;" parent="1" edge="1">
          <mxGeometry relative="1" as="geometry">
            <mxPoint x="2270.75" y="401.64" as="sourcePoint" />
            <mxPoint x="2550" y="402" as="targetPoint" />
          </mxGeometry>
        </mxCell>
        <mxCell id="lSdv-a1NBsbb_buQkSgG-2300" value="" style="shape=mxgraph.cisco.switches.layer_3_switch;sketch=0;html=1;pointerEvents=1;dashed=0;fillColor=#036897;strokeColor=#ffffff;strokeWidth=2;verticalLabelPosition=bottom;verticalAlign=top;align=center;outlineConnect=0;" parent="1" vertex="1">
          <mxGeometry x="2477" y="449" width="64" height="64" as="geometry" />
        </mxCell>
        <mxCell id="lSdv-a1NBsbb_buQkSgG-2301" style="edgeStyle=none;rounded=1;html=1;strokeColor=#23445D;endArrow=none;endFill=0;strokeWidth=4;entryX=0.5;entryY=0;entryDx=0;entryDy=0;entryPerimeter=0;" parent="1" target="lSdv-a1NBsbb_buQkSgG-2300" edge="1">
          <mxGeometry relative="1" as="geometry">
            <mxPoint x="2510" y="400" as="sourcePoint" />
            <mxPoint x="2477" y="410" as="targetPoint" />
          </mxGeometry>
        </mxCell>
        <mxCell id="lSdv-a1NBsbb_buQkSgG-2302" style="edgeStyle=none;rounded=1;html=1;strokeColor=#23445D;endArrow=none;endFill=0;strokeWidth=4;exitX=0;exitY=0.5;exitDx=0;exitDy=0;exitPerimeter=0;entryX=0.5;entryY=0;entryDx=0;entryDy=0;entryPerimeter=0;" parent="1" source="lSdv-a1NBsbb_buQkSgG-2300" target="lSdv-a1NBsbb_buQkSgG-2297" edge="1">
          <mxGeometry relative="1" as="geometry">
            <mxPoint x="2390" y="456" as="sourcePoint" />
            <mxPoint x="2390" y="514" as="targetPoint" />
          </mxGeometry>
        </mxCell>
        <mxCell id="lSdv-a1NBsbb_buQkSgG-2303" style="edgeStyle=none;rounded=1;html=1;strokeColor=#23445D;endArrow=none;endFill=0;strokeWidth=4;exitX=0.5;exitY=0.98;exitDx=0;exitDy=0;exitPerimeter=0;" parent="1" source="lSdv-a1NBsbb_buQkSgG-2297" edge="1">
          <mxGeometry relative="1" as="geometry">
            <mxPoint x="2260" y="570" as="sourcePoint" />
            <mxPoint x="2210" y="730" as="targetPoint" />
          </mxGeometry>
        </mxCell>
        <mxCell id="lSdv-a1NBsbb_buQkSgG-2304" value="" style="shape=mxgraph.cisco.switches.workgroup_switch;html=1;dashed=0;fillColor=#10739E;strokeColor=#ffffff;strokeWidth=2;verticalLabelPosition=bottom;verticalAlign=top;fontFamily=Helvetica;fontSize=36;fontColor=#FFB366" parent="1" vertex="1">
          <mxGeometry x="2608.25" y="537" width="101" height="50" as="geometry" />
        </mxCell>
        <mxCell id="lSdv-a1NBsbb_buQkSgG-2305" style="edgeStyle=none;rounded=1;html=1;strokeColor=#23445D;endArrow=none;endFill=0;strokeWidth=4;exitX=0.5;exitY=0;exitDx=0;exitDy=0;exitPerimeter=0;entryX=1;entryY=0.5;entryDx=0;entryDy=0;entryPerimeter=0;" parent="1" source="lSdv-a1NBsbb_buQkSgG-2304" target="lSdv-a1NBsbb_buQkSgG-2300" edge="1">
          <mxGeometry relative="1" as="geometry">
            <mxPoint x="2656" y="525" as="sourcePoint" />
            <mxPoint x="2390" y="587" as="targetPoint" />
          </mxGeometry>
        </mxCell>
        <mxCell id="lSdv-a1NBsbb_buQkSgG-2306" style="edgeStyle=none;rounded=1;html=1;strokeColor=#23445D;endArrow=none;endFill=0;strokeWidth=4;exitX=0.5;exitY=0.98;exitDx=0;exitDy=0;exitPerimeter=0;" parent="1" source="lSdv-a1NBsbb_buQkSgG-2304" edge="1">
          <mxGeometry relative="1" as="geometry">
            <mxPoint x="2668.75" y="626.5" as="sourcePoint" />
            <mxPoint x="2660" y="1010" as="targetPoint" />
          </mxGeometry>
        </mxCell>
        <mxCell id="lSdv-a1NBsbb_buQkSgG-2307" value="" style="shape=mxgraph.cisco.security.firewall;sketch=0;html=1;pointerEvents=1;dashed=0;fillColor=#036897;strokeColor=#ffffff;strokeWidth=2;verticalLabelPosition=bottom;verticalAlign=top;align=center;outlineConnect=0;" parent="1" vertex="1">
          <mxGeometry x="2196" y="611.5" width="29" height="67" as="geometry" />
        </mxCell>
        <mxCell id="lSdv-a1NBsbb_buQkSgG-2309" value="" style="shape=mxgraph.cisco.security.firewall;sketch=0;html=1;pointerEvents=1;dashed=0;fillColor=#036897;strokeColor=#ffffff;strokeWidth=2;verticalLabelPosition=bottom;verticalAlign=top;align=center;outlineConnect=0;" parent="1" vertex="1">
          <mxGeometry x="2375" y="163" width="29" height="67" as="geometry" />
        </mxCell>
        <mxCell id="lSdv-a1NBsbb_buQkSgG-2310" value="" style="shape=mxgraph.cisco.security.firewall;sketch=0;html=1;pointerEvents=1;dashed=0;fillColor=#036897;strokeColor=#ffffff;strokeWidth=2;verticalLabelPosition=bottom;verticalAlign=top;align=center;outlineConnect=0;" parent="1" vertex="1">
          <mxGeometry x="2380" y="-18" width="29" height="67" as="geometry" />
        </mxCell>
        <mxCell id="lSdv-a1NBsbb_buQkSgG-2312" value="" style="shape=mxgraph.cisco.computers_and_peripherals.ibm_mainframe;sketch=0;html=1;pointerEvents=1;dashed=0;fillColor=#036897;strokeColor=#ffffff;strokeWidth=2;verticalLabelPosition=bottom;verticalAlign=top;align=center;outlineConnect=0;" parent="1" vertex="1">
          <mxGeometry x="2780" y="795" width="50" height="70" as="geometry" />
        </mxCell>
        <mxCell id="lSdv-a1NBsbb_buQkSgG-2313" value="PI" style="shape=mxgraph.cisco.computers_and_peripherals.pc;sketch=0;html=1;pointerEvents=1;dashed=0;fillColor=#036897;strokeColor=#ffffff;strokeWidth=2;verticalLabelPosition=bottom;verticalAlign=top;align=center;outlineConnect=0;" parent="1" vertex="1">
          <mxGeometry x="2766" y="1016" width="78" height="70" as="geometry" />
        </mxCell>
        <mxCell id="lSdv-a1NBsbb_buQkSgG-2316" style="edgeStyle=orthogonalEdgeStyle;rounded=1;html=1;strokeColor=#23445D;endArrow=none;endFill=0;strokeWidth=4;entryX=0.16;entryY=0.5;entryDx=0;entryDy=0;entryPerimeter=0;" parent="1" target="lSdv-a1NBsbb_buQkSgG-2313" edge="1">
          <mxGeometry relative="1" as="geometry">
            <Array as="points">
              <mxPoint x="2660" y="1051" />
            </Array>
            <mxPoint x="2660" y="1010" as="sourcePoint" />
            <mxPoint x="2705" y="1070" as="targetPoint" />
          </mxGeometry>
        </mxCell>
        <mxCell id="lSdv-a1NBsbb_buQkSgG-2317" value="" style="shape=mxgraph.cisco.security.firewall;sketch=0;html=1;pointerEvents=1;dashed=0;fillColor=#036897;strokeColor=#ffffff;strokeWidth=2;verticalLabelPosition=bottom;verticalAlign=top;align=center;outlineConnect=0;" parent="1" vertex="1">
          <mxGeometry x="2709" y="1016" width="29" height="67" as="geometry" />
        </mxCell>
        <mxCell id="lSdv-a1NBsbb_buQkSgG-2319" style="edgeStyle=orthogonalEdgeStyle;rounded=1;html=1;strokeColor=#23445D;endArrow=none;endFill=0;strokeWidth=4;entryX=0;entryY=0.5;entryDx=0;entryDy=0;entryPerimeter=0;" parent="1" target="lSdv-a1NBsbb_buQkSgG-2312" edge="1">
          <mxGeometry relative="1" as="geometry">
            <Array as="points">
              <mxPoint x="2660" y="830" />
            </Array>
            <mxPoint x="2660" y="810" as="sourcePoint" />
            <mxPoint x="2778" y="850.5" as="targetPoint" />
          </mxGeometry>
        </mxCell>
        <mxCell id="lSdv-a1NBsbb_buQkSgG-2318" value="" style="shape=mxgraph.cisco.security.firewall;sketch=0;html=1;pointerEvents=1;dashed=0;fillColor=#036897;strokeColor=#ffffff;strokeWidth=2;verticalLabelPosition=bottom;verticalAlign=top;align=center;outlineConnect=0;" parent="1" vertex="1">
          <mxGeometry x="2709" y="799" width="29" height="67" as="geometry" />
        </mxCell>
        <mxCell id="lSdv-a1NBsbb_buQkSgG-2321" value="" style="shape=mxgraph.cisco.routers.router;sketch=0;html=1;pointerEvents=1;dashed=0;fillColor=#036897;strokeColor=#ffffff;strokeWidth=2;verticalLabelPosition=bottom;verticalAlign=top;align=center;outlineConnect=0;" parent="1" vertex="1">
          <mxGeometry x="2895" y="807" width="50" height="45" as="geometry" />
        </mxCell>
        <mxCell id="lSdv-a1NBsbb_buQkSgG-2322" style="edgeStyle=none;rounded=1;html=1;strokeColor=#23445D;endArrow=none;endFill=0;strokeWidth=4;entryX=1;entryY=0.5;entryDx=0;entryDy=0;entryPerimeter=0;" parent="1" source="lSdv-a1NBsbb_buQkSgG-2321" target="lSdv-a1NBsbb_buQkSgG-2312" edge="1">
          <mxGeometry relative="1" as="geometry">
            <mxPoint x="2945" y="865" as="sourcePoint" />
            <mxPoint x="2827" y="809" as="targetPoint" />
          </mxGeometry>
        </mxCell>
        <mxCell id="lSdv-a1NBsbb_buQkSgG-2327" value="K8s" style="shape=mxgraph.cisco.computers_and_peripherals.ibm_mini_as400;sketch=0;html=1;pointerEvents=1;dashed=0;fillColor=#036897;strokeColor=#ffffff;strokeWidth=2;verticalLabelPosition=bottom;verticalAlign=top;align=center;outlineConnect=0;" parent="1" vertex="1">
          <mxGeometry x="3110" y="741" width="43" height="62" as="geometry" />
        </mxCell>
        <mxCell id="lSdv-a1NBsbb_buQkSgG-2328" value="RaccoonMain" style="shape=mxgraph.cisco.computers_and_peripherals.ibm_mini_as400;sketch=0;html=1;pointerEvents=1;dashed=0;fillColor=#036897;strokeColor=#ffffff;strokeWidth=2;verticalLabelPosition=bottom;verticalAlign=top;align=center;outlineConnect=0;" parent="1" vertex="1">
          <mxGeometry x="3110" y="866" width="43" height="62" as="geometry" />
        </mxCell>
        <mxCell id="lSdv-a1NBsbb_buQkSgG-2333" style="edgeStyle=none;rounded=1;html=1;strokeColor=#23445D;endArrow=none;endFill=0;strokeWidth=4;entryX=1;entryY=0.5;entryDx=0;entryDy=0;entryPerimeter=0;exitX=0;exitY=0.5;exitDx=0;exitDy=0;exitPerimeter=0;" parent="1" source="lSdv-a1NBsbb_buQkSgG-2328" target="lSdv-a1NBsbb_buQkSgG-2321" edge="1">
          <mxGeometry relative="1" as="geometry">
            <mxPoint x="3120" y="813" as="sourcePoint" />
            <mxPoint x="2955" y="840" as="targetPoint" />
          </mxGeometry>
        </mxCell>
        <mxCell id="lSdv-a1NBsbb_buQkSgG-2334" style="edgeStyle=none;rounded=1;html=1;strokeColor=#23445D;endArrow=none;endFill=0;strokeWidth=4;entryX=1;entryY=0.5;entryDx=0;entryDy=0;entryPerimeter=0;" parent="1" target="lSdv-a1NBsbb_buQkSgG-2321" edge="1">
          <mxGeometry relative="1" as="geometry">
            <mxPoint x="3040" y="830" as="sourcePoint" />
            <mxPoint x="3000" y="822" as="targetPoint" />
          </mxGeometry>
        </mxCell>
        <mxCell id="lSdv-a1NBsbb_buQkSgG-2338" style="edgeStyle=none;rounded=1;html=1;strokeColor=#23445D;endArrow=none;endFill=0;strokeWidth=4;" parent="1" edge="1">
          <mxGeometry relative="1" as="geometry">
            <mxPoint x="3110" y="760" as="sourcePoint" />
            <mxPoint x="3040" y="760" as="targetPoint" />
          </mxGeometry>
        </mxCell>
        <mxCell id="lSdv-a1NBsbb_buQkSgG-2339" style="edgeStyle=none;rounded=1;html=1;strokeColor=#23445D;endArrow=none;endFill=0;strokeWidth=4;" parent="1" edge="1">
          <mxGeometry relative="1" as="geometry">
            <mxPoint x="3110" y="772" as="sourcePoint" />
            <mxPoint x="3040" y="772" as="targetPoint" />
          </mxGeometry>
        </mxCell>
        <mxCell id="lSdv-a1NBsbb_buQkSgG-2340" style="edgeStyle=none;rounded=1;html=1;strokeColor=#23445D;endArrow=none;endFill=0;strokeWidth=4;" parent="1" edge="1">
          <mxGeometry relative="1" as="geometry">
            <mxPoint x="3110" y="785" as="sourcePoint" />
            <mxPoint x="3040" y="785" as="targetPoint" />
            <Array as="points">
              <mxPoint x="3080" y="785" />
            </Array>
          </mxGeometry>
        </mxCell>
        <mxCell id="lSdv-a1NBsbb_buQkSgG-2341" style="edgeStyle=none;rounded=1;html=1;strokeColor=#23445D;endArrow=none;endFill=0;strokeWidth=4;" parent="1" edge="1">
          <mxGeometry relative="1" as="geometry">
            <mxPoint x="3040" y="830" as="sourcePoint" />
            <mxPoint x="3040" y="760" as="targetPoint" />
          </mxGeometry>
        </mxCell>
        <mxCell id="lSdv-a1NBsbb_buQkSgG-2326" value="" style="shape=mxgraph.cisco.security.firewall;sketch=0;html=1;pointerEvents=1;dashed=0;fillColor=#036897;strokeColor=#ffffff;strokeWidth=2;verticalLabelPosition=bottom;verticalAlign=top;align=center;outlineConnect=0;" parent="1" vertex="1">
          <mxGeometry x="2980" y="791" width="30" height="95" as="geometry" />
        </mxCell>
        <mxCell id="lSdv-a1NBsbb_buQkSgG-2342" value="&lt;font style=&quot;font-size: 9px;&quot;&gt;HAProxy&lt;/font&gt;" style="shadow=0;dashed=0;html=1;labelPosition=center;verticalLabelPosition=bottom;verticalAlign=top;align=center;outlineConnect=0;shape=mxgraph.veeam.3d.proxy;" parent="1" vertex="1">
          <mxGeometry x="3210" y="749" width="46" height="46" as="geometry" />
        </mxCell>
        <mxCell id="lSdv-a1NBsbb_buQkSgG-2343" style="edgeStyle=none;rounded=1;html=1;strokeColor=#23445D;endArrow=none;endFill=0;strokeWidth=4;entryX=1;entryY=0.5;entryDx=0;entryDy=0;entryPerimeter=0;" parent="1" source="lSdv-a1NBsbb_buQkSgG-2342" target="lSdv-a1NBsbb_buQkSgG-2327" edge="1">
          <mxGeometry relative="1" as="geometry">
            <mxPoint x="3180" y="772" as="sourcePoint" />
            <mxPoint x="3186" y="772" as="targetPoint" />
          </mxGeometry>
        </mxCell>
        <mxCell id="lSdv-a1NBsbb_buQkSgG-2344" value="Jenkins" style="outlineConnect=0;dashed=0;verticalLabelPosition=bottom;verticalAlign=top;align=center;html=1;shape=mxgraph.aws3.ec2;fillColor=#F58534;gradientColor=none;" parent="1" vertex="1">
          <mxGeometry x="3308" y="672" width="52" height="68" as="geometry" />
        </mxCell>
        <mxCell id="lSdv-a1NBsbb_buQkSgG-2345" style="edgeStyle=none;rounded=1;html=1;strokeColor=#23445D;endArrow=none;endFill=0;strokeWidth=4;exitX=0;exitY=0.5;exitDx=0;exitDy=0;exitPerimeter=0;" parent="1" source="lSdv-a1NBsbb_buQkSgG-2344" target="lSdv-a1NBsbb_buQkSgG-2342" edge="1">
          <mxGeometry relative="1" as="geometry">
            <mxPoint x="3337" y="771.44" as="sourcePoint" />
            <mxPoint x="3490" y="640" as="targetPoint" />
          </mxGeometry>
        </mxCell>
        <mxCell id="lSdv-a1NBsbb_buQkSgG-2346" value="PSQL" style="sketch=0;html=1;dashed=0;whitespace=wrap;fillColor=#2875E2;strokeColor=#ffffff;points=[[0.005,0.63,0],[0.1,0.2,0],[0.9,0.2,0],[0.5,0,0],[0.995,0.63,0],[0.72,0.99,0],[0.5,1,0],[0.28,0.99,0]];verticalLabelPosition=bottom;align=center;verticalAlign=top;shape=mxgraph.kubernetes.icon;prIcon=pod" parent="1" vertex="1">
          <mxGeometry x="3670" y="687.5" width="50" height="48" as="geometry" />
        </mxCell>
        <mxCell id="lSdv-a1NBsbb_buQkSgG-2347" value="" style="sketch=0;html=1;dashed=0;whitespace=wrap;fillColor=#2875E2;strokeColor=#ffffff;points=[[0.005,0.63,0],[0.1,0.2,0],[0.9,0.2,0],[0.5,0,0],[0.995,0.63,0],[0.72,0.99,0],[0.5,1,0],[0.28,0.99,0]];verticalLabelPosition=bottom;align=center;verticalAlign=top;shape=mxgraph.kubernetes.icon;prIcon=pv" parent="1" vertex="1">
          <mxGeometry x="3770" y="659" width="50" height="48" as="geometry" />
        </mxCell>
        <mxCell id="lSdv-a1NBsbb_buQkSgG-2349" value="" style="image;sketch=0;aspect=fixed;html=1;points=[];align=center;fontSize=12;image=img/lib/mscae/Kubernetes.svg;" parent="1" vertex="1">
          <mxGeometry x="3266" y="975.9999999999999" width="72" height="69.12" as="geometry" />
        </mxCell>
        <mxCell id="lSdv-a1NBsbb_buQkSgG-2350" value="" style="sketch=0;html=1;dashed=0;whitespace=wrap;fillColor=#2875E2;strokeColor=#ffffff;points=[[0.005,0.63,0],[0.1,0.2,0],[0.9,0.2,0],[0.5,0,0],[0.995,0.63,0],[0.72,0.99,0],[0.5,1,0],[0.28,0.99,0]];verticalLabelPosition=bottom;align=center;verticalAlign=top;shape=mxgraph.kubernetes.icon;prIcon=secret" parent="1" vertex="1">
          <mxGeometry x="3770" y="867.5" width="50" height="48" as="geometry" />
        </mxCell>
        <mxCell id="lSdv-a1NBsbb_buQkSgG-2351" value="" style="outlineConnect=0;dashed=0;verticalLabelPosition=bottom;verticalAlign=top;align=center;html=1;shape=mxgraph.aws3.application_load_balancer;fillColor=#2875e2;gradientColor=none;" parent="1" vertex="1">
          <mxGeometry x="3560" y="833.75" width="50" height="45.5" as="geometry" />
        </mxCell>
        <mxCell id="lSdv-a1NBsbb_buQkSgG-2352" style="edgeStyle=none;rounded=1;html=1;strokeColor=#23445D;endArrow=none;endFill=0;strokeWidth=4;exitX=0.417;exitY=-0.027;exitDx=0;exitDy=0;exitPerimeter=0;" parent="1" source="lSdv-a1NBsbb_buQkSgG-2349" target="lSdv-a1NBsbb_buQkSgG-2342" edge="1">
          <mxGeometry relative="1" as="geometry">
            <mxPoint x="3360" y="707" as="sourcePoint" />
            <mxPoint x="3266" y="767" as="targetPoint" />
          </mxGeometry>
        </mxCell>
        <mxCell id="lSdv-a1NBsbb_buQkSgG-2354" value="" style="outlineConnect=0;dashed=0;verticalLabelPosition=bottom;verticalAlign=top;align=center;html=1;shape=mxgraph.aws3.application_load_balancer;fillColor=#2875e2;gradientColor=none;" parent="1" vertex="1">
          <mxGeometry x="3540" y="694" width="50" height="45.5" as="geometry" />
        </mxCell>
        <mxCell id="lSdv-a1NBsbb_buQkSgG-2355" value="" style="outlineConnect=0;dashed=0;verticalLabelPosition=bottom;verticalAlign=top;align=center;html=1;shape=mxgraph.aws3.application_load_balancer;fillColor=#66CC00;gradientColor=none;" parent="1" vertex="1">
          <mxGeometry x="3747" y="750" width="50" height="45.5" as="geometry" />
        </mxCell>
        <mxCell id="lSdv-a1NBsbb_buQkSgG-2356" value="" style="outlineConnect=0;dashed=0;verticalLabelPosition=bottom;verticalAlign=top;align=center;html=1;shape=mxgraph.aws3.application_load_balancer;fillColor=#2875e2;gradientColor=none;" parent="1" vertex="1">
          <mxGeometry x="3560" y="931.5" width="50" height="45.5" as="geometry" />
        </mxCell>
        <mxCell id="lSdv-a1NBsbb_buQkSgG-2357" value="" style="outlineConnect=0;dashed=0;verticalLabelPosition=bottom;verticalAlign=top;align=center;html=1;shape=mxgraph.aws3.application_load_balancer;fillColor=#2875e2;gradientColor=none;" parent="1" vertex="1">
          <mxGeometry x="4480" y="652.5" width="50" height="45.5" as="geometry" />
        </mxCell>
        <mxCell id="lSdv-a1NBsbb_buQkSgG-2366" value="PSQL-Controller" style="sketch=0;html=1;dashed=0;whitespace=wrap;fillColor=#2875E2;strokeColor=#ffffff;points=[[0.005,0.63,0],[0.1,0.2,0],[0.9,0.2,0],[0.5,0,0],[0.995,0.63,0],[0.72,0.99,0],[0.5,1,0],[0.28,0.99,0]];verticalLabelPosition=bottom;align=center;verticalAlign=top;shape=mxgraph.kubernetes.icon;prIcon=pod" parent="1" vertex="1">
          <mxGeometry x="3670" y="599" width="50" height="48" as="geometry" />
        </mxCell>
        <mxCell id="lSdv-a1NBsbb_buQkSgG-2367" value="KAFKA-Controller" style="sketch=0;html=1;dashed=0;whitespace=wrap;fillColor=#2875E2;strokeColor=#ffffff;points=[[0.005,0.63,0],[0.1,0.2,0],[0.9,0.2,0],[0.5,0,0],[0.995,0.63,0],[0.72,0.99,0],[0.5,1,0],[0.28,0.99,0]];verticalLabelPosition=bottom;align=center;verticalAlign=top;shape=mxgraph.kubernetes.icon;prIcon=pod" parent="1" vertex="1">
          <mxGeometry x="4145" y="587" width="50" height="48" as="geometry" />
        </mxCell>
        <mxCell id="lSdv-a1NBsbb_buQkSgG-2378" style="edgeStyle=orthogonalEdgeStyle;rounded=1;html=1;strokeColor=#23445D;endArrow=none;endFill=0;strokeWidth=4;exitX=0.5;exitY=0;exitDx=0;exitDy=0;exitPerimeter=0;entryX=0.995;entryY=0.63;entryDx=0;entryDy=0;entryPerimeter=0;elbow=vertical;" parent="1" source="lSdv-a1NBsbb_buQkSgG-2387" target="lSdv-a1NBsbb_buQkSgG-2386" edge="1">
          <mxGeometry relative="1" as="geometry">
            <mxPoint x="3858" y="760" as="sourcePoint" />
            <mxPoint x="3790" y="861" as="targetPoint" />
            <Array as="points">
              <mxPoint x="4295" y="660" />
              <mxPoint x="3890" y="660" />
              <mxPoint x="3890" y="960" />
              <mxPoint x="3710" y="960" />
            </Array>
          </mxGeometry>
        </mxCell>
        <mxCell id="lSdv-a1NBsbb_buQkSgG-2379" style="edgeStyle=none;rounded=1;html=1;strokeColor=#23445D;endArrow=none;endFill=0;strokeWidth=4;exitX=0.005;exitY=0.63;exitDx=0;exitDy=0;exitPerimeter=0;entryX=1;entryY=0.5;entryDx=0;entryDy=0;entryPerimeter=0;" parent="1" source="lSdv-a1NBsbb_buQkSgG-2386" target="lSdv-a1NBsbb_buQkSgG-2356" edge="1">
          <mxGeometry relative="1" as="geometry">
            <mxPoint x="3428" y="990.5" as="sourcePoint" />
            <mxPoint x="3360" y="1091.5" as="targetPoint" />
          </mxGeometry>
        </mxCell>
        <mxCell id="lSdv-a1NBsbb_buQkSgG-2380" style="edgeStyle=none;rounded=1;html=1;strokeColor=#23445D;endArrow=none;endFill=0;strokeWidth=4;exitX=0.005;exitY=0.63;exitDx=0;exitDy=0;exitPerimeter=0;entryX=1;entryY=0.5;entryDx=0;entryDy=0;entryPerimeter=0;" parent="1" source="lSdv-a1NBsbb_buQkSgG-2385" target="lSdv-a1NBsbb_buQkSgG-2351" edge="1">
          <mxGeometry relative="1" as="geometry">
            <mxPoint x="3590" y="847" as="sourcePoint" />
            <mxPoint x="3522" y="948" as="targetPoint" />
          </mxGeometry>
        </mxCell>
        <mxCell id="lSdv-a1NBsbb_buQkSgG-2381" style="edgeStyle=none;rounded=1;html=1;strokeColor=#23445D;endArrow=none;endFill=0;strokeWidth=4;exitX=0.5;exitY=1;exitDx=0;exitDy=0;exitPerimeter=0;entryX=0.9;entryY=0.2;entryDx=0;entryDy=0;entryPerimeter=0;" parent="1" source="lSdv-a1NBsbb_buQkSgG-2355" target="lSdv-a1NBsbb_buQkSgG-2385" edge="1">
          <mxGeometry relative="1" as="geometry">
            <mxPoint x="3600" y="857" as="sourcePoint" />
            <mxPoint x="3532" y="958" as="targetPoint" />
          </mxGeometry>
        </mxCell>
        <mxCell id="lSdv-a1NBsbb_buQkSgG-2382" style="edgeStyle=none;rounded=1;html=1;strokeColor=#23445D;endArrow=none;endFill=0;strokeWidth=4;exitX=0.005;exitY=0.63;exitDx=0;exitDy=0;exitPerimeter=0;entryX=1;entryY=0.5;entryDx=0;entryDy=0;entryPerimeter=0;" parent="1" source="lSdv-a1NBsbb_buQkSgG-2346" target="lSdv-a1NBsbb_buQkSgG-2354" edge="1">
          <mxGeometry relative="1" as="geometry">
            <mxPoint x="3650" y="822" as="sourcePoint" />
            <mxPoint x="3582" y="923" as="targetPoint" />
          </mxGeometry>
        </mxCell>
        <mxCell id="lSdv-a1NBsbb_buQkSgG-2383" style="edgeStyle=none;rounded=1;html=1;strokeColor=#23445D;endArrow=none;endFill=0;strokeWidth=4;exitX=0.005;exitY=0.63;exitDx=0;exitDy=0;exitPerimeter=0;entryX=0.995;entryY=0.63;entryDx=0;entryDy=0;entryPerimeter=0;" parent="1" source="lSdv-a1NBsbb_buQkSgG-2347" target="lSdv-a1NBsbb_buQkSgG-2346" edge="1">
          <mxGeometry relative="1" as="geometry">
            <mxPoint x="3768" y="755.5" as="sourcePoint" />
            <mxPoint x="3700" y="856.5" as="targetPoint" />
          </mxGeometry>
        </mxCell>
        <mxCell id="lSdv-a1NBsbb_buQkSgG-2384" style="edgeStyle=none;rounded=1;html=1;strokeColor=#23445D;endArrow=none;endFill=0;strokeWidth=4;exitX=0.995;exitY=0.63;exitDx=0;exitDy=0;exitPerimeter=0;entryX=0.5;entryY=0;entryDx=0;entryDy=0;entryPerimeter=0;" parent="1" source="lSdv-a1NBsbb_buQkSgG-2346" target="lSdv-a1NBsbb_buQkSgG-2355" edge="1">
          <mxGeometry relative="1" as="geometry">
            <mxPoint x="3678" y="797.5" as="sourcePoint" />
            <mxPoint x="3610" y="898.5" as="targetPoint" />
          </mxGeometry>
        </mxCell>
        <mxCell id="lSdv-a1NBsbb_buQkSgG-2385" value="RAC-FE" style="sketch=0;html=1;dashed=0;whitespace=wrap;fillColor=#2875E2;strokeColor=#ffffff;points=[[0.005,0.63,0],[0.1,0.2,0],[0.9,0.2,0],[0.5,0,0],[0.995,0.63,0],[0.72,0.99,0],[0.5,1,0],[0.28,0.99,0]];verticalLabelPosition=bottom;align=center;verticalAlign=top;shape=mxgraph.kubernetes.icon;prIcon=pod" parent="1" vertex="1">
          <mxGeometry x="3660" y="829.5" width="50" height="48" as="geometry" />
        </mxCell>
        <mxCell id="lSdv-a1NBsbb_buQkSgG-2386" value="RAC-BE" style="sketch=0;html=1;dashed=0;whitespace=wrap;fillColor=#2875E2;strokeColor=#ffffff;points=[[0.005,0.63,0],[0.1,0.2,0],[0.9,0.2,0],[0.5,0,0],[0.995,0.63,0],[0.72,0.99,0],[0.5,1,0],[0.28,0.99,0]];verticalLabelPosition=bottom;align=center;verticalAlign=top;shape=mxgraph.kubernetes.icon;prIcon=pod" parent="1" vertex="1">
          <mxGeometry x="3660" y="928" width="50" height="48" as="geometry" />
        </mxCell>
        <mxCell id="lSdv-a1NBsbb_buQkSgG-2387" value="" style="outlineConnect=0;dashed=0;verticalLabelPosition=bottom;verticalAlign=top;align=center;html=1;shape=mxgraph.aws3.application_load_balancer;fillColor=#66CC00;gradientColor=none;direction=east;" parent="1" vertex="1">
          <mxGeometry x="4270" y="680.5" width="50" height="45.5" as="geometry" />
        </mxCell>
        <mxCell id="lSdv-a1NBsbb_buQkSgG-2374" style="edgeStyle=none;rounded=1;html=1;strokeColor=#23445D;endArrow=none;endFill=0;strokeWidth=4;exitX=0.5;exitY=0;exitDx=0;exitDy=0;exitPerimeter=0;entryX=0.5;entryY=1;entryDx=0;entryDy=0;entryPerimeter=0;" parent="1" source="lSdv-a1NBsbb_buQkSgG-2388" target="lSdv-a1NBsbb_buQkSgG-2387" edge="1">
          <mxGeometry relative="1" as="geometry">
            <mxPoint x="3950" y="752.5" as="sourcePoint" />
            <mxPoint x="3882" y="853.5" as="targetPoint" />
          </mxGeometry>
        </mxCell>
        <mxCell id="lSdv-a1NBsbb_buQkSgG-2389" value="DASHBOARD" style="sketch=0;html=1;dashed=0;whitespace=wrap;fillColor=#2875E2;strokeColor=#ffffff;points=[[0.005,0.63,0],[0.1,0.2,0],[0.9,0.2,0],[0.5,0,0],[0.995,0.63,0],[0.72,0.99,0],[0.5,1,0],[0.28,0.99,0]];verticalLabelPosition=bottom;align=center;verticalAlign=top;shape=mxgraph.kubernetes.icon;prIcon=pod;direction=east;" parent="1" vertex="1">
          <mxGeometry x="4420" y="744" width="50" height="48" as="geometry" />
        </mxCell>
        <mxCell id="lSdv-a1NBsbb_buQkSgG-2390" value="SR" style="sketch=0;html=1;dashed=0;whitespace=wrap;fillColor=#2875E2;strokeColor=#ffffff;points=[[0.005,0.63,0],[0.1,0.2,0],[0.9,0.2,0],[0.5,0,0],[0.995,0.63,0],[0.72,0.99,0],[0.5,1,0],[0.28,0.99,0]];verticalLabelPosition=bottom;align=center;verticalAlign=top;shape=mxgraph.kubernetes.icon;prIcon=pod;direction=east;" parent="1" vertex="1">
          <mxGeometry x="4125" y="796" width="50" height="48" as="geometry" />
        </mxCell>
        <mxCell id="lSdv-a1NBsbb_buQkSgG-2391" value="BROKER" style="sketch=0;html=1;dashed=0;whitespace=wrap;fillColor=#2875E2;strokeColor=#ffffff;points=[[0.005,0.63,0],[0.1,0.2,0],[0.9,0.2,0],[0.5,0,0],[0.995,0.63,0],[0.72,0.99,0],[0.5,1,0],[0.28,0.99,0]];verticalLabelPosition=bottom;align=center;verticalAlign=top;shape=mxgraph.kubernetes.icon;prIcon=pod;direction=east;" parent="1" vertex="1">
          <mxGeometry x="4195" y="798" width="50" height="48" as="geometry" />
        </mxCell>
        <mxCell id="lSdv-a1NBsbb_buQkSgG-2373" style="edgeStyle=none;rounded=1;html=1;strokeColor=#23445D;endArrow=none;endFill=0;strokeWidth=4;exitX=0.5;exitY=0;exitDx=0;exitDy=0;exitPerimeter=0;entryX=0.5;entryY=1;entryDx=0;entryDy=0;entryPerimeter=0;" parent="1" source="lSdv-a1NBsbb_buQkSgG-2391" target="lSdv-a1NBsbb_buQkSgG-2387" edge="1">
          <mxGeometry relative="1" as="geometry">
            <mxPoint x="4039" y="706.5" as="sourcePoint" />
            <mxPoint x="3971" y="807.5" as="targetPoint" />
          </mxGeometry>
        </mxCell>
        <mxCell id="lSdv-a1NBsbb_buQkSgG-2392" value="" style="outlineConnect=0;dashed=0;verticalLabelPosition=bottom;verticalAlign=top;align=center;html=1;shape=mxgraph.aws3.application_load_balancer;fillColor=#66CC00;gradientColor=none;direction=east;" parent="1" vertex="1">
          <mxGeometry x="3980" y="680.5" width="50" height="45.5" as="geometry" />
        </mxCell>
        <mxCell id="lSdv-a1NBsbb_buQkSgG-2393" value="" style="outlineConnect=0;dashed=0;verticalLabelPosition=bottom;verticalAlign=top;align=center;html=1;shape=mxgraph.aws3.application_load_balancer;fillColor=#66CC00;gradientColor=none;direction=east;" parent="1" vertex="1">
          <mxGeometry x="4125" y="680.5" width="50" height="45.5" as="geometry" />
        </mxCell>
        <mxCell id="lSdv-a1NBsbb_buQkSgG-2371" style="edgeStyle=none;rounded=1;html=1;strokeColor=#23445D;endArrow=none;endFill=0;strokeWidth=4;exitX=0;exitY=0.5;exitDx=0;exitDy=0;exitPerimeter=0;entryX=1;entryY=0.5;entryDx=0;entryDy=0;entryPerimeter=0;" parent="1" source="lSdv-a1NBsbb_buQkSgG-2387" target="lSdv-a1NBsbb_buQkSgG-2393" edge="1">
          <mxGeometry relative="1" as="geometry">
            <mxPoint x="3998" y="759.5" as="sourcePoint" />
            <mxPoint x="3930" y="860.5" as="targetPoint" />
          </mxGeometry>
        </mxCell>
        <mxCell id="lSdv-a1NBsbb_buQkSgG-2372" style="edgeStyle=none;rounded=1;html=1;strokeColor=#23445D;endArrow=none;endFill=0;strokeWidth=4;exitX=0.5;exitY=0;exitDx=0;exitDy=0;exitPerimeter=0;entryX=0.5;entryY=1;entryDx=0;entryDy=0;entryPerimeter=0;" parent="1" source="lSdv-a1NBsbb_buQkSgG-2390" target="lSdv-a1NBsbb_buQkSgG-2393" edge="1">
          <mxGeometry relative="1" as="geometry">
            <mxPoint x="4088" y="743" as="sourcePoint" />
            <mxPoint x="4020" y="844" as="targetPoint" />
          </mxGeometry>
        </mxCell>
        <mxCell id="lSdv-a1NBsbb_buQkSgG-2369" style="edgeStyle=none;rounded=1;html=1;strokeColor=#23445D;endArrow=none;endFill=0;strokeWidth=4;exitX=0;exitY=0.5;exitDx=0;exitDy=0;exitPerimeter=0;entryX=1;entryY=0.5;entryDx=0;entryDy=0;entryPerimeter=0;" parent="1" source="lSdv-a1NBsbb_buQkSgG-2393" target="lSdv-a1NBsbb_buQkSgG-2392" edge="1">
          <mxGeometry relative="1" as="geometry">
            <mxPoint x="3958" y="826.5" as="sourcePoint" />
            <mxPoint x="3890" y="927.5" as="targetPoint" />
          </mxGeometry>
        </mxCell>
        <mxCell id="lSdv-a1NBsbb_buQkSgG-2395" value="ZKP" style="sketch=0;html=1;dashed=0;whitespace=wrap;fillColor=#2875E2;strokeColor=#ffffff;points=[[0.005,0.63,0],[0.1,0.2,0],[0.9,0.2,0],[0.5,0,0],[0.995,0.63,0],[0.72,0.99,0],[0.5,1,0],[0.28,0.99,0]];verticalLabelPosition=bottom;align=center;verticalAlign=top;shape=mxgraph.kubernetes.icon;prIcon=pod;direction=east;" parent="1" vertex="1">
          <mxGeometry x="3980" y="796" width="50" height="48" as="geometry" />
        </mxCell>
        <mxCell id="lSdv-a1NBsbb_buQkSgG-2370" style="edgeStyle=none;rounded=1;html=1;strokeColor=#23445D;endArrow=none;endFill=0;strokeWidth=4;exitX=0.5;exitY=0;exitDx=0;exitDy=0;exitPerimeter=0;entryX=0.5;entryY=1;entryDx=0;entryDy=0;entryPerimeter=0;" parent="1" source="lSdv-a1NBsbb_buQkSgG-2395" target="lSdv-a1NBsbb_buQkSgG-2392" edge="1">
          <mxGeometry relative="1" as="geometry">
            <mxPoint x="4018" y="938.5" as="sourcePoint" />
            <mxPoint x="3950" y="1039.5" as="targetPoint" />
          </mxGeometry>
        </mxCell>
        <mxCell id="lSdv-a1NBsbb_buQkSgG-2402" style="edgeStyle=none;rounded=1;html=1;strokeColor=#23445D;endArrow=none;endFill=0;strokeWidth=4;exitX=0.005;exitY=0.63;exitDx=0;exitDy=0;exitPerimeter=0;entryX=0.995;entryY=0.63;entryDx=0;entryDy=0;entryPerimeter=0;" parent="1" source="lSdv-a1NBsbb_buQkSgG-2350" target="lSdv-a1NBsbb_buQkSgG-2385" edge="1">
          <mxGeometry relative="1" as="geometry">
            <mxPoint x="3782" y="806" as="sourcePoint" />
            <mxPoint x="3725" y="828" as="targetPoint" />
          </mxGeometry>
        </mxCell>
        <mxCell id="lSdv-a1NBsbb_buQkSgG-2403" style="edgeStyle=none;rounded=1;html=1;strokeColor=#23445D;endArrow=none;endFill=0;strokeWidth=4;exitX=0.005;exitY=0.63;exitDx=0;exitDy=0;exitPerimeter=0;entryX=0.9;entryY=0.2;entryDx=0;entryDy=0;entryPerimeter=0;" parent="1" source="lSdv-a1NBsbb_buQkSgG-2350" target="lSdv-a1NBsbb_buQkSgG-2386" edge="1">
          <mxGeometry relative="1" as="geometry">
            <mxPoint x="3770" y="877" as="sourcePoint" />
            <mxPoint x="3730" y="848" as="targetPoint" />
          </mxGeometry>
        </mxCell>
        <mxCell id="lSdv-a1NBsbb_buQkSgG-2404" value="" style="sketch=0;html=1;dashed=0;whitespace=wrap;fillColor=#2875E2;strokeColor=#ffffff;points=[[0.005,0.63,0],[0.1,0.2,0],[0.9,0.2,0],[0.5,0,0],[0.995,0.63,0],[0.72,0.99,0],[0.5,1,0],[0.28,0.99,0]];verticalLabelPosition=bottom;align=center;verticalAlign=top;shape=mxgraph.kubernetes.icon;prIcon=pv" parent="1" vertex="1">
          <mxGeometry x="4040" y="844" width="50" height="48" as="geometry" />
        </mxCell>
        <mxCell id="lSdv-a1NBsbb_buQkSgG-2405" style="edgeStyle=none;rounded=1;html=1;strokeColor=#23445D;endArrow=none;endFill=0;strokeWidth=4;exitX=0.995;exitY=0.63;exitDx=0;exitDy=0;exitPerimeter=0;entryX=0.1;entryY=0.2;entryDx=0;entryDy=0;entryPerimeter=0;" parent="1" source="lSdv-a1NBsbb_buQkSgG-2395" target="lSdv-a1NBsbb_buQkSgG-2404" edge="1">
          <mxGeometry relative="1" as="geometry">
            <mxPoint x="4015" y="806" as="sourcePoint" />
            <mxPoint x="4015" y="736" as="targetPoint" />
          </mxGeometry>
        </mxCell>
        <mxCell id="lSdv-a1NBsbb_buQkSgG-2407" value="" style="sketch=0;html=1;dashed=0;whitespace=wrap;fillColor=#2875E2;strokeColor=#ffffff;points=[[0.005,0.63,0],[0.1,0.2,0],[0.9,0.2,0],[0.5,0,0],[0.995,0.63,0],[0.72,0.99,0],[0.5,1,0],[0.28,0.99,0]];verticalLabelPosition=bottom;align=center;verticalAlign=top;shape=mxgraph.kubernetes.icon;prIcon=pv" parent="1" vertex="1">
          <mxGeometry x="4300" y="866.5" width="30" height="28.5" as="geometry" />
        </mxCell>
        <mxCell id="lSdv-a1NBsbb_buQkSgG-2408" style="edgeStyle=none;rounded=1;html=1;strokeColor=#23445D;endArrow=none;endFill=0;strokeWidth=4;exitX=0.005;exitY=0.63;exitDx=0;exitDy=0;exitPerimeter=0;entryX=0.9;entryY=0.2;entryDx=0;entryDy=0;entryPerimeter=0;" parent="1" source="lSdv-a1NBsbb_buQkSgG-2388" target="lSdv-a1NBsbb_buQkSgG-2407" edge="1">
          <mxGeometry relative="1" as="geometry">
            <mxPoint x="4285" y="824" as="sourcePoint" />
            <mxPoint x="4300" y="852" as="targetPoint" />
          </mxGeometry>
        </mxCell>
        <mxCell id="lSdv-a1NBsbb_buQkSgG-2409" style="edgeStyle=none;rounded=1;html=1;strokeColor=#23445D;endArrow=none;endFill=0;strokeWidth=4;exitX=0.995;exitY=0.63;exitDx=0;exitDy=0;exitPerimeter=0;entryX=0.5;entryY=0;entryDx=0;entryDy=0;entryPerimeter=0;" parent="1" source="lSdv-a1NBsbb_buQkSgG-2391" target="lSdv-a1NBsbb_buQkSgG-2410" edge="1">
          <mxGeometry relative="1" as="geometry">
            <mxPoint x="4050" y="846" as="sourcePoint" />
            <mxPoint x="4283" y="774" as="targetPoint" />
          </mxGeometry>
        </mxCell>
        <mxCell id="lSdv-a1NBsbb_buQkSgG-2410" value="" style="sketch=0;html=1;dashed=0;whitespace=wrap;fillColor=#2875E2;strokeColor=#ffffff;points=[[0.005,0.63,0],[0.1,0.2,0],[0.9,0.2,0],[0.5,0,0],[0.995,0.63,0],[0.72,0.99,0],[0.5,1,0],[0.28,0.99,0]];verticalLabelPosition=bottom;align=center;verticalAlign=top;shape=mxgraph.kubernetes.icon;prIcon=pv" parent="1" vertex="1">
          <mxGeometry x="4260" y="865" width="30" height="31.5" as="geometry" />
        </mxCell>
        <mxCell id="lSdv-a1NBsbb_buQkSgG-2412" value="&lt;font style=&quot;font-size: 9px;&quot;&gt;&lt;b&gt;POSTGRES&lt;/b&gt;&lt;/font&gt;" style="text;html=1;align=center;verticalAlign=middle;resizable=0;points=[];autosize=1;strokeColor=none;fillColor=none;" parent="1" vertex="1">
          <mxGeometry x="3600" y="595" width="70" height="30" as="geometry" />
        </mxCell>
        <mxCell id="lSdv-a1NBsbb_buQkSgG-2421" value="" style="rounded=1;whiteSpace=wrap;html=1;strokeColor=#005700;fillColor=#008a00;fontSize=24;align=center;opacity=60;fontColor=#ffffff;" parent="1" vertex="1">
          <mxGeometry x="3540" y="1071" width="230" height="150" as="geometry" />
        </mxCell>
        <mxCell id="lSdv-a1NBsbb_buQkSgG-2413" value="&lt;font style=&quot;font-size: 9px;&quot;&gt;&lt;b&gt;RACCOON&lt;/b&gt;&lt;/font&gt;" style="text;html=1;align=center;verticalAlign=middle;resizable=0;points=[];autosize=1;strokeColor=none;fillColor=none;" parent="1" vertex="1">
          <mxGeometry x="3747" y="814" width="70" height="30" as="geometry" />
        </mxCell>
        <mxCell id="lSdv-a1NBsbb_buQkSgG-2414" value="&lt;font size=&quot;1&quot;&gt;&lt;b&gt;KAFKA&lt;/b&gt;&lt;/font&gt;" style="text;html=1;align=center;verticalAlign=middle;resizable=0;points=[];autosize=1;strokeColor=none;fillColor=none;" parent="1" vertex="1">
          <mxGeometry x="3965" y="587" width="60" height="30" as="geometry" />
        </mxCell>
        <mxCell id="lSdv-a1NBsbb_buQkSgG-2415" value="" style="outlineConnect=0;dashed=0;verticalLabelPosition=bottom;verticalAlign=top;align=center;html=1;shape=mxgraph.aws3.application_load_balancer;fillColor=#2875e2;gradientColor=none;" parent="1" vertex="1">
          <mxGeometry x="3560" y="1112.5" width="50" height="45.5" as="geometry" />
        </mxCell>
        <mxCell id="lSdv-a1NBsbb_buQkSgG-2417" style="edgeStyle=none;rounded=1;html=1;strokeColor=#23445D;endArrow=none;endFill=0;strokeWidth=4;exitX=0;exitY=0.597;exitDx=0;exitDy=0;exitPerimeter=0;entryX=0.994;entryY=0.596;entryDx=0;entryDy=0;entryPerimeter=0;" parent="1" source="lSdv-a1NBsbb_buQkSgG-2353" target="lSdv-a1NBsbb_buQkSgG-2349" edge="1">
          <mxGeometry relative="1" as="geometry">
            <mxPoint x="3317" y="901" as="sourcePoint" />
            <mxPoint x="3257" y="805" as="targetPoint" />
          </mxGeometry>
        </mxCell>
        <mxCell id="lSdv-a1NBsbb_buQkSgG-2418" style="edgeStyle=none;rounded=1;html=1;strokeColor=#23445D;endArrow=none;endFill=0;strokeWidth=4;entryX=1;entryY=0.5;entryDx=0;entryDy=0;entryPerimeter=0;" parent="1" source="lSdv-a1NBsbb_buQkSgG-2422" target="lSdv-a1NBsbb_buQkSgG-2415" edge="1">
          <mxGeometry relative="1" as="geometry">
            <mxPoint x="3680" y="1233" as="sourcePoint" />
            <mxPoint x="3620" y="1137" as="targetPoint" />
          </mxGeometry>
        </mxCell>
        <mxCell id="lSdv-a1NBsbb_buQkSgG-2419" style="edgeStyle=orthogonalEdgeStyle;rounded=1;html=1;strokeColor=#23445D;endArrow=none;endFill=0;strokeWidth=4;exitX=0.5;exitY=1;exitDx=0;exitDy=0;exitPerimeter=0;entryX=0.995;entryY=0.63;entryDx=0;entryDy=0;entryPerimeter=0;" parent="1" source="lSdv-a1NBsbb_buQkSgG-2357" target="lSdv-a1NBsbb_buQkSgG-2389" edge="1">
          <mxGeometry relative="1" as="geometry">
            <mxPoint x="4460" y="982" as="sourcePoint" />
            <mxPoint x="4400" y="886" as="targetPoint" />
          </mxGeometry>
        </mxCell>
        <mxCell id="lSdv-a1NBsbb_buQkSgG-2420" style="edgeStyle=orthogonalEdgeStyle;rounded=1;html=1;strokeColor=#23445D;endArrow=none;endFill=0;strokeWidth=4;exitX=0.5;exitY=0;exitDx=0;exitDy=0;exitPerimeter=0;entryX=1;entryY=0.5;entryDx=0;entryDy=0;entryPerimeter=0;" parent="1" source="lSdv-a1NBsbb_buQkSgG-2389" target="lSdv-a1NBsbb_buQkSgG-2387" edge="1">
          <mxGeometry relative="1" as="geometry">
            <mxPoint x="4440" y="768.5" as="sourcePoint" />
            <mxPoint x="4380" y="672.5" as="targetPoint" />
          </mxGeometry>
        </mxCell>
        <mxCell id="lSdv-a1NBsbb_buQkSgG-2422" value="PORTAINER" style="sketch=0;html=1;dashed=0;whitespace=wrap;fillColor=#2875E2;strokeColor=#ffffff;points=[[0.005,0.63,0],[0.1,0.2,0],[0.9,0.2,0],[0.5,0,0],[0.995,0.63,0],[0.72,0.99,0],[0.5,1,0],[0.28,0.99,0]];verticalLabelPosition=bottom;align=center;verticalAlign=top;shape=mxgraph.kubernetes.icon;prIcon=pod" parent="1" vertex="1">
          <mxGeometry x="3680" y="1111.25" width="50" height="48" as="geometry" />
        </mxCell>
        <mxCell id="lSdv-a1NBsbb_buQkSgG-2425" value="" style="rounded=1;whiteSpace=wrap;html=1;strokeColor=#C73500;fillColor=#fa6800;fontSize=24;align=center;opacity=60;fontColor=#000000;" parent="1" vertex="1">
          <mxGeometry x="3870" y="980" width="420" height="272" as="geometry" />
        </mxCell>
        <mxCell id="lSdv-a1NBsbb_buQkSgG-2423" value="GRAFANA" style="sketch=0;html=1;dashed=0;whitespace=wrap;fillColor=#2875E2;strokeColor=#ffffff;points=[[0.005,0.63,0],[0.1,0.2,0],[0.9,0.2,0],[0.5,0,0],[0.995,0.63,0],[0.72,0.99,0],[0.5,1,0],[0.28,0.99,0]];verticalLabelPosition=bottom;align=center;verticalAlign=top;shape=mxgraph.kubernetes.icon;prIcon=pod" parent="1" vertex="1">
          <mxGeometry x="4095" y="1025.5" width="50" height="48" as="geometry" />
        </mxCell>
        <mxCell id="lSdv-a1NBsbb_buQkSgG-2424" value="PROMETHEUS" style="sketch=0;html=1;dashed=0;whitespace=wrap;fillColor=#2875E2;strokeColor=#ffffff;points=[[0.005,0.63,0],[0.1,0.2,0],[0.9,0.2,0],[0.5,0,0],[0.995,0.63,0],[0.72,0.99,0],[0.5,1,0],[0.28,0.99,0]];verticalLabelPosition=bottom;align=center;verticalAlign=top;shape=mxgraph.kubernetes.icon;prIcon=pod" parent="1" vertex="1">
          <mxGeometry x="4095" y="1149" width="50" height="48" as="geometry" />
        </mxCell>
        <mxCell id="lSdv-a1NBsbb_buQkSgG-2426" value="" style="outlineConnect=0;dashed=0;verticalLabelPosition=bottom;verticalAlign=top;align=center;html=1;shape=mxgraph.aws3.application_load_balancer;fillColor=#2875e2;gradientColor=none;" parent="1" vertex="1">
          <mxGeometry x="3945" y="1153.5" width="50" height="45.5" as="geometry" />
        </mxCell>
        <mxCell id="lSdv-a1NBsbb_buQkSgG-2427" value="" style="outlineConnect=0;dashed=0;verticalLabelPosition=bottom;verticalAlign=top;align=center;html=1;shape=mxgraph.aws3.application_load_balancer;fillColor=#66CC00;gradientColor=none;direction=east;" parent="1" vertex="1">
          <mxGeometry x="4210" y="1093.25" width="50" height="45.5" as="geometry" />
        </mxCell>
        <mxCell id="lSdv-a1NBsbb_buQkSgG-2428" value="" style="outlineConnect=0;dashed=0;verticalLabelPosition=bottom;verticalAlign=top;align=center;html=1;shape=mxgraph.aws3.application_load_balancer;fillColor=#2875e2;gradientColor=none;" parent="1" vertex="1">
          <mxGeometry x="3945" y="1032.5" width="50" height="45.5" as="geometry" />
        </mxCell>
        <mxCell id="lSdv-a1NBsbb_buQkSgG-2429" value="&lt;font style=&quot;font-size: 9px;&quot;&gt;&lt;b&gt;PORTAINER&lt;/b&gt;&lt;/font&gt;" style="text;html=1;align=center;verticalAlign=middle;resizable=0;points=[];autosize=1;strokeColor=none;fillColor=none;" parent="1" vertex="1">
          <mxGeometry x="3615" y="1071" width="80" height="30" as="geometry" />
        </mxCell>
        <mxCell id="lSdv-a1NBsbb_buQkSgG-2430" value="&lt;font style=&quot;font-size: 9px;&quot;&gt;&lt;b&gt;MONITORING&lt;/b&gt;&lt;/font&gt;" style="text;html=1;align=center;verticalAlign=middle;resizable=0;points=[];autosize=1;strokeColor=none;fillColor=none;" parent="1" vertex="1">
          <mxGeometry x="3910" y="980" width="80" height="30" as="geometry" />
        </mxCell>
        <mxCell id="lSdv-a1NBsbb_buQkSgG-2431" style="edgeStyle=none;rounded=1;html=1;strokeColor=#23445D;endArrow=none;endFill=0;strokeWidth=4;entryX=1;entryY=0.5;entryDx=0;entryDy=0;entryPerimeter=0;exitX=0.005;exitY=0.63;exitDx=0;exitDy=0;exitPerimeter=0;" parent="1" source="lSdv-a1NBsbb_buQkSgG-2423" target="lSdv-a1NBsbb_buQkSgG-2428" edge="1">
          <mxGeometry relative="1" as="geometry">
            <mxPoint x="4040" y="1113" as="sourcePoint" />
            <mxPoint x="3970" y="1113" as="targetPoint" />
          </mxGeometry>
        </mxCell>
        <mxCell id="lSdv-a1NBsbb_buQkSgG-2432" style="edgeStyle=none;rounded=1;html=1;strokeColor=#23445D;endArrow=none;endFill=0;strokeWidth=4;entryX=0.995;entryY=0.63;entryDx=0;entryDy=0;entryPerimeter=0;exitX=0.5;exitY=0;exitDx=0;exitDy=0;exitPerimeter=0;" parent="1" source="lSdv-a1NBsbb_buQkSgG-2427" target="lSdv-a1NBsbb_buQkSgG-2423" edge="1">
          <mxGeometry relative="1" as="geometry">
            <mxPoint x="4050" y="1123" as="sourcePoint" />
            <mxPoint x="3980" y="1123" as="targetPoint" />
          </mxGeometry>
        </mxCell>
        <mxCell id="lSdv-a1NBsbb_buQkSgG-2433" style="edgeStyle=none;rounded=1;html=1;strokeColor=#23445D;endArrow=none;endFill=0;strokeWidth=4;entryX=0.995;entryY=0.63;entryDx=0;entryDy=0;entryPerimeter=0;exitX=0.5;exitY=1;exitDx=0;exitDy=0;exitPerimeter=0;" parent="1" source="lSdv-a1NBsbb_buQkSgG-2427" target="lSdv-a1NBsbb_buQkSgG-2424" edge="1">
          <mxGeometry relative="1" as="geometry">
            <mxPoint x="4060" y="1133" as="sourcePoint" />
            <mxPoint x="3990" y="1133" as="targetPoint" />
          </mxGeometry>
        </mxCell>
        <mxCell id="lSdv-a1NBsbb_buQkSgG-2434" style="edgeStyle=none;rounded=1;html=1;strokeColor=#23445D;endArrow=none;endFill=0;strokeWidth=4;entryX=1;entryY=0.5;entryDx=0;entryDy=0;entryPerimeter=0;exitX=0.005;exitY=0.63;exitDx=0;exitDy=0;exitPerimeter=0;" parent="1" source="lSdv-a1NBsbb_buQkSgG-2424" target="lSdv-a1NBsbb_buQkSgG-2426" edge="1">
          <mxGeometry relative="1" as="geometry">
            <mxPoint x="4070" y="1143" as="sourcePoint" />
            <mxPoint x="4000" y="1143" as="targetPoint" />
          </mxGeometry>
        </mxCell>
        <mxCell id="lSdv-a1NBsbb_buQkSgG-2435" value="&lt;font color=&quot;#23445d&quot;&gt;BIND9&lt;/font&gt;" style="rounded=1;whiteSpace=wrap;html=1;strokeColor=none;fillColor=none;fontSize=14;fontColor=#742B21;align=center;fontStyle=1" parent="1" vertex="1">
          <mxGeometry x="2550.25" y="49" width="73" height="19" as="geometry" />
        </mxCell>
        <mxCell id="lSdv-a1NBsbb_buQkSgG-2436" value="" style="shape=mxgraph.cisco.switches.workgroup_switch;html=1;dashed=0;fillColor=#10739E;strokeColor=#ffffff;strokeWidth=2;verticalLabelPosition=bottom;verticalAlign=top;fontFamily=Helvetica;fontSize=36;fontColor=#FFB366" parent="1" vertex="1">
          <mxGeometry x="2250" y="288.5" width="101" height="50" as="geometry" />
        </mxCell>
        <mxCell id="lSdv-a1NBsbb_buQkSgG-2438" value="&lt;font color=&quot;#23445d&quot;&gt;192.168.20.0/24&lt;/font&gt;" style="rounded=1;whiteSpace=wrap;html=1;strokeColor=none;fillColor=none;fontSize=14;fontColor=#742B21;align=center;fontStyle=1" parent="1" vertex="1">
          <mxGeometry x="2780" y="721" width="74.75" height="23" as="geometry" />
        </mxCell>
        <mxCell id="lSdv-a1NBsbb_buQkSgG-2439" value="&lt;font color=&quot;#23445d&quot;&gt;192.168.10.0/24&lt;/font&gt;" style="rounded=1;whiteSpace=wrap;html=1;strokeColor=none;fillColor=none;fontSize=14;fontColor=#742B21;align=center;fontStyle=1" parent="1" vertex="1">
          <mxGeometry x="2329.25" y="729.5" width="74.75" height="23" as="geometry" />
        </mxCell>
        <mxCell id="lSdv-a1NBsbb_buQkSgG-2441" value="&lt;font color=&quot;#23445d&quot;&gt;&lt;span style=&quot;caret-color: rgb(35, 68, 93);&quot;&gt;cluster-entry.internal&lt;/span&gt;&lt;/font&gt;" style="rounded=1;whiteSpace=wrap;html=1;strokeColor=none;fillColor=none;fontSize=14;fontColor=#742B21;align=center;fontStyle=1" parent="1" vertex="1">
          <mxGeometry x="2970" y="683" width="170" height="23" as="geometry" />
        </mxCell>
        <mxCell id="lSdv-a1NBsbb_buQkSgG-2442" value="&lt;font color=&quot;#23445d&quot;&gt;192.168.20.234&lt;/font&gt;" style="rounded=1;whiteSpace=wrap;html=1;strokeColor=none;fillColor=none;fontSize=14;fontColor=#742B21;align=center;fontStyle=1" parent="1" vertex="1">
          <mxGeometry x="3020" y="718" width="74.75" height="23" as="geometry" />
        </mxCell>
        <mxCell id="lSdv-a1NBsbb_buQkSgG-2443" value="&lt;font color=&quot;#23445d&quot;&gt;192.168.20.233&lt;/font&gt;" style="rounded=1;whiteSpace=wrap;html=1;strokeColor=none;fillColor=none;fontSize=14;fontColor=#742B21;align=center;fontStyle=1" parent="1" vertex="1">
          <mxGeometry x="3020" y="735.5" width="74.75" height="23" as="geometry" />
        </mxCell>
        <mxCell id="lSdv-a1NBsbb_buQkSgG-2444" value="&lt;font color=&quot;#23445d&quot;&gt;192.168.20.1xx&lt;/font&gt;" style="rounded=1;whiteSpace=wrap;html=1;strokeColor=none;fillColor=none;fontSize=14;fontColor=#742B21;align=center;fontStyle=1" parent="1" vertex="1">
          <mxGeometry x="3320" y="953" width="74.75" height="23" as="geometry" />
        </mxCell>
        <mxCell id="lSdv-a1NBsbb_buQkSgG-2445" value="&lt;font color=&quot;#23445d&quot;&gt;*.cluster.svc.internal&lt;/font&gt;" style="rounded=1;whiteSpace=wrap;html=1;strokeColor=none;fillColor=none;fontSize=14;fontColor=#742B21;align=center;fontStyle=1" parent="1" vertex="1">
          <mxGeometry x="3320" y="937.5" width="74.75" height="28" as="geometry" />
        </mxCell>
        <mxCell id="lSdv-a1NBsbb_buQkSgG-2446" value="&lt;font color=&quot;#23445d&quot;&gt;node0.internal&lt;/font&gt;" style="rounded=1;whiteSpace=wrap;html=1;strokeColor=none;fillColor=none;fontSize=14;fontColor=#742B21;align=center;fontStyle=1" parent="1" vertex="1">
          <mxGeometry x="2769.25" y="989" width="74.75" height="23" as="geometry" />
        </mxCell>
        <mxCell id="lSdv-a1NBsbb_buQkSgG-2447" value="&lt;font color=&quot;#23445d&quot;&gt;192.168.5.xxx&lt;/font&gt;" style="rounded=1;whiteSpace=wrap;html=1;strokeColor=none;fillColor=none;fontSize=14;fontColor=#742B21;align=center;fontStyle=1" parent="1" vertex="1">
          <mxGeometry x="2550.25" y="-41" width="74.75" height="23" as="geometry" />
        </mxCell>
        <mxCell id="lSdv-a1NBsbb_buQkSgG-2448" value="&lt;font color=&quot;#23445d&quot;&gt;192.168.30.0/24&lt;/font&gt;" style="rounded=1;whiteSpace=wrap;html=1;strokeColor=none;fillColor=none;fontSize=14;fontColor=#742B21;align=center;fontStyle=1" parent="1" vertex="1">
          <mxGeometry x="2551" y="241.5" width="74.75" height="23" as="geometry" />
        </mxCell>
        <mxCell id="lSdv-a1NBsbb_buQkSgG-2449" value="Cloudflare Tunnel" style="image;aspect=fixed;perimeter=ellipsePerimeter;html=1;align=center;shadow=0;dashed=0;spacingTop=3;image=img/lib/active_directory/tunnel.svg;" parent="1" vertex="1">
          <mxGeometry x="2970" y="598.5" width="115" height="23" as="geometry" />
        </mxCell>
        <mxCell id="lSdv-a1NBsbb_buQkSgG-2450" style="edgeStyle=orthogonalEdgeStyle;rounded=1;html=1;strokeColor=#23445D;endArrow=none;endFill=0;strokeWidth=4;entryX=0.5;entryY=0;entryDx=0;entryDy=0;entryPerimeter=0;exitX=1;exitY=0.5;exitDx=0;exitDy=0;" parent="1" source="lSdv-a1NBsbb_buQkSgG-2449" target="lSdv-a1NBsbb_buQkSgG-2327" edge="1">
          <mxGeometry relative="1" as="geometry">
            <mxPoint x="3210" y="699.26" as="sourcePoint" />
            <mxPoint x="3153" y="699.26" as="targetPoint" />
          </mxGeometry>
        </mxCell>
        <mxCell id="lSdv-a1NBsbb_buQkSgG-2451" value="" style="endArrow=none;dashed=1;html=1;rounded=0;strokeWidth=4;entryX=0;entryY=0.5;entryDx=0;entryDy=0;" parent="1" target="lSdv-a1NBsbb_buQkSgG-2449" edge="1">
          <mxGeometry width="50" height="50" relative="1" as="geometry">
            <mxPoint x="2910" y="610" as="sourcePoint" />
            <mxPoint x="2920" y="580" as="targetPoint" />
          </mxGeometry>
        </mxCell>
        <mxCell id="lSdv-a1NBsbb_buQkSgG-2452" value="&lt;font color=&quot;#23445d&quot;&gt;RAM: 28GB&lt;br&gt;DISK: 3TB&lt;br&gt;&lt;/font&gt;" style="rounded=1;whiteSpace=wrap;html=1;strokeColor=none;fillColor=none;fontSize=14;fontColor=#742B21;align=center;fontStyle=1" parent="1" vertex="1">
          <mxGeometry x="3110" y="708.5" width="127" height="23" as="geometry" />
        </mxCell>
        <mxCell id="YzRcjxbdqehWOXSICaOq-2229" style="edgeStyle=orthogonalEdgeStyle;rounded=1;html=1;strokeColor=#23445D;endArrow=none;endFill=0;strokeWidth=4;entryX=0.16;entryY=0.5;entryDx=0;entryDy=0;entryPerimeter=0;" edge="1" parent="1">
          <mxGeometry relative="1" as="geometry">
            <Array as="points">
              <mxPoint x="2660" y="1231" />
            </Array>
            <mxPoint x="2660" y="1190" as="sourcePoint" />
            <mxPoint x="2778" y="1231" as="targetPoint" />
          </mxGeometry>
        </mxCell>
        <mxCell id="YzRcjxbdqehWOXSICaOq-2230" style="edgeStyle=none;rounded=1;html=1;strokeColor=#23445D;endArrow=none;endFill=0;strokeWidth=4;" edge="1" parent="1">
          <mxGeometry relative="1" as="geometry">
            <mxPoint x="2660" y="1040" as="sourcePoint" />
            <mxPoint x="2660" y="1190" as="targetPoint" />
          </mxGeometry>
        </mxCell>
        <mxCell id="YzRcjxbdqehWOXSICaOq-2231" value="" style="shape=mxgraph.cisco.security.firewall;sketch=0;html=1;pointerEvents=1;dashed=0;fillColor=#036897;strokeColor=#ffffff;strokeWidth=2;verticalLabelPosition=bottom;verticalAlign=top;align=center;outlineConnect=0;" vertex="1" parent="1">
          <mxGeometry x="2709" y="1197" width="29" height="67" as="geometry" />
        </mxCell>
        <mxCell id="YzRcjxbdqehWOXSICaOq-2233" value="X86Node" style="shape=mxgraph.cisco.computers_and_peripherals.pc;sketch=0;html=1;pointerEvents=1;dashed=0;fillColor=#036897;strokeColor=#ffffff;strokeWidth=2;verticalLabelPosition=bottom;verticalAlign=top;align=center;outlineConnect=0;" vertex="1" parent="1">
          <mxGeometry x="2766" y="1195.5" width="78" height="70" as="geometry" />
        </mxCell>
        <mxCell id="YzRcjxbdqehWOXSICaOq-2234" value="&lt;font color=&quot;#23445d&quot;&gt;node1.internal&lt;/font&gt;" style="rounded=1;whiteSpace=wrap;html=1;strokeColor=none;fillColor=none;fontSize=14;fontColor=#742B21;align=center;fontStyle=1;arcSize=50;" vertex="1" parent="1">
          <mxGeometry x="2766" y="1160" width="74.75" height="31" as="geometry" />
        </mxCell>
        <mxCell id="lSdv-a1NBsbb_buQkSgG-2388" value="BROKER" style="sketch=0;html=1;dashed=0;whitespace=wrap;fillColor=#2875E2;strokeColor=#ffffff;points=[[0.005,0.63,0],[0.1,0.2,0],[0.9,0.2,0],[0.5,0,0],[0.995,0.63,0],[0.72,0.99,0],[0.5,1,0],[0.28,0.99,0]];verticalLabelPosition=bottom;align=center;verticalAlign=top;shape=mxgraph.kubernetes.icon;prIcon=pod;direction=east;" parent="1" vertex="1">
          <mxGeometry x="4350" y="795" width="50" height="54" as="geometry" />
        </mxCell>
        <mxCell id="YzRcjxbdqehWOXSICaOq-2235" style="edgeStyle=none;rounded=1;html=1;strokeColor=#23445D;endArrow=none;endFill=0;strokeWidth=4;entryX=0.83;entryY=0.5;entryDx=0;entryDy=0;entryPerimeter=0;" edge="1" parent="1" target="YzRcjxbdqehWOXSICaOq-2233">
          <mxGeometry relative="1" as="geometry">
            <mxPoint x="3270" y="1020" as="sourcePoint" />
            <mxPoint x="3094.75" y="1057.5" as="targetPoint" />
          </mxGeometry>
        </mxCell>
        <mxCell id="YzRcjxbdqehWOXSICaOq-2236" style="edgeStyle=none;rounded=1;html=1;strokeColor=#23445D;endArrow=none;endFill=0;strokeWidth=4;entryX=0.83;entryY=0.5;entryDx=0;entryDy=0;entryPerimeter=0;" edge="1" parent="1" target="lSdv-a1NBsbb_buQkSgG-2313">
          <mxGeometry relative="1" as="geometry">
            <mxPoint x="3270" y="1020" as="sourcePoint" />
            <mxPoint x="2887" y="1140.5" as="targetPoint" />
          </mxGeometry>
        </mxCell>
        <mxCell id="YzRcjxbdqehWOXSICaOq-2237" style="edgeStyle=orthogonalEdgeStyle;rounded=1;html=1;strokeColor=#23445D;endArrow=none;endFill=0;strokeWidth=4;exitX=0.5;exitY=0;exitDx=0;exitDy=0;exitPerimeter=0;entryX=0.995;entryY=0.63;entryDx=0;entryDy=0;entryPerimeter=0;elbow=vertical;" edge="1" parent="1" source="lSdv-a1NBsbb_buQkSgG-2393" target="lSdv-a1NBsbb_buQkSgG-2386">
          <mxGeometry relative="1" as="geometry">
            <mxPoint x="4305" y="691" as="sourcePoint" />
            <mxPoint x="3720" y="968" as="targetPoint" />
            <Array as="points">
              <mxPoint x="4150" y="670" />
              <mxPoint x="3900" y="670" />
              <mxPoint x="3900" y="960" />
              <mxPoint x="3710" y="960" />
            </Array>
          </mxGeometry>
        </mxCell>
        <mxCell id="YzRcjxbdqehWOXSICaOq-2238" value="&lt;font color=&quot;#23445d&quot;&gt;192.168.20.237&lt;/font&gt;" style="rounded=1;whiteSpace=wrap;html=1;strokeColor=none;fillColor=none;fontSize=14;fontColor=#742B21;align=center;fontStyle=1" vertex="1" parent="1">
          <mxGeometry x="3020" y="703" width="74.75" height="23" as="geometry" />
        </mxCell>
      </root>
    </mxGraphModel>
  </diagram>
</mxfile>
